<svg width="15" height="14" viewBox="0 0 15 14" fill="none" xmlns="http://www.w3.org/2000/svg">
<path d="M12.1731 11.6666L8.8146 8.30819M8.8146 8.30819C9.44797 7.67481 9.83972 6.79981 9.83972 5.83331C9.83972 3.90032 8.27272 2.33331 6.33972 2.33331C4.40673 2.33331 2.83972 3.90032 2.83972 5.83331C2.83972 7.76631 4.40673 9.33331 6.33972 9.33331C7.30622 9.33331 8.18122 8.94156 8.8146 8.30819Z" stroke="#21325D" stroke-linecap="round"/>
<path fill-rule="evenodd" clip-rule="evenodd" d="M6.33969 2.72224C4.62148 2.72224 3.22858 4.11513 3.22858 5.83335C3.22858 7.55157 4.62148 8.94446 6.33969 8.94446C7.19891 8.94446 7.97616 8.59666 8.53958 8.03323C9.10301 7.46981 9.45081 6.69256 9.45081 5.83335C9.45081 4.11513 8.05791 2.72224 6.33969 2.72224ZM2.45081 5.83335C2.45081 3.68557 4.19192 1.94446 6.33969 1.94446C8.48747 1.94446 10.2286 3.68557 10.2286 5.83335C10.2286 6.76702 9.89916 7.62431 9.35082 8.29451L12.448 11.3917C12.5999 11.5436 12.5999 11.7898 12.448 11.9417C12.2961 12.0935 12.0499 12.0935 11.898 11.9417L8.80085 8.84448C8.13065 9.39282 7.27336 9.72224 6.33969 9.72224C4.19192 9.72224 2.45081 7.98112 2.45081 5.83335Z" fill="#21325D"/>
</svg>
